<svg xmlns="http://www.w3.org/2000/svg" width="45" height="21" viewBox="0 0 45 21">
  <path d="M42.690,14.235 C42.690,14.235 42.690,21.000 42.690,21.000 C42.690,21.000 -0.000,21.000 -0.000,21.000 C-0.000,21.000 -0.000,-0.000 -0.000,-0.000 C-0.000,-0.000 42.690,-0.000 42.690,-0.000 C42.690,-0.000 42.690,7.017 42.690,7.017 C42.690,7.017 45.000,7.017 45.000,7.017 C45.000,7.017 45.000,14.235 45.000,14.235 C45.000,14.235 42.690,14.235 42.690,14.235 ZM40.405,2.347 C40.405,2.347 2.310,2.347 2.310,2.347 C2.310,2.347 2.310,18.652 2.310,18.652 C2.310,18.652 40.405,18.652 40.405,18.652 C40.405,18.652 40.405,2.347 40.405,2.347 ZM9.643,6.537 C9.643,6.537 11.928,6.537 11.928,6.537 C11.928,6.537 11.928,9.339 11.928,9.339 C11.928,9.339 14.690,9.339 14.690,9.339 C14.690,9.339 14.690,11.661 14.690,11.661 C14.690,11.661 11.928,11.661 11.928,11.661 C11.928,11.661 11.928,14.463 11.928,14.463 C11.928,14.463 9.643,14.463 9.643,14.463 C9.643,14.463 9.643,11.661 9.643,11.661 C9.643,11.661 6.881,11.661 6.881,11.661 C6.881,11.661 6.881,9.339 6.881,9.339 C6.881,9.339 9.643,9.339 9.643,9.339 C9.643,9.339 9.643,6.537 9.643,6.537 ZM35.834,11.661 C35.834,11.661 27.999,11.661 27.999,11.661 C27.999,11.661 27.999,9.339 27.999,9.339 C27.999,9.339 35.834,9.339 35.834,9.339 C35.834,9.339 35.834,11.661 35.834,11.661 Z"  fill-rule="evenodd"/>
</svg>
