<svg xmlns="http://www.w3.org/2000/svg" xmlns:xlink="http://www.w3.org/1999/xlink" preserveAspectRatio="xMidYMid" width="80" height="37" viewBox="0 0 80 37">
  <defs>
    <style>

      .cls-2 {
        fill: url(#linear-gradient-1);
      }
    </style>

    <linearGradient id="linear-gradient-1" gradientUnits="userSpaceOnUse" x1="80" y1="33.855" x2="0" y2="3.145">
      <stop offset="0" stop-color="#45d8e7"/>
      <stop offset="1" stop-color="#6cff6c"/>
    </linearGradient>
  </defs>
  <path d="M75.918,25.078 C75.918,25.078 75.918,37.000 75.918,37.000 C75.918,37.000 -0.000,37.000 -0.000,37.000 C-0.000,37.000 -0.000,-0.000 -0.000,-0.000 C-0.000,-0.000 75.918,-0.000 75.918,-0.000 C75.918,-0.000 75.918,12.333 75.918,12.333 C75.918,12.333 80.000,12.333 80.000,12.333 C80.000,12.333 80.000,25.078 80.000,25.078 C80.000,25.078 75.918,25.078 75.918,25.078 ZM71.837,4.111 C71.837,4.111 4.082,4.111 4.082,4.111 C4.082,4.111 4.082,32.889 4.082,32.889 C4.082,32.889 71.837,32.889 71.837,32.889 C71.837,32.889 71.837,4.111 71.837,4.111 ZM17.143,11.511 C17.143,11.511 21.224,11.511 21.224,11.511 C21.224,11.511 21.224,16.444 21.224,16.444 C21.224,16.444 26.122,16.444 26.122,16.444 C26.122,16.444 26.122,20.555 26.122,20.555 C26.122,20.555 21.224,20.555 21.224,20.555 C21.224,20.555 21.224,25.489 21.224,25.489 C21.224,25.489 17.143,25.489 17.143,25.489 C17.143,25.489 17.143,20.555 17.143,20.555 C17.143,20.555 12.245,20.555 12.245,20.555 C12.245,20.555 12.245,16.444 12.245,16.444 C12.245,16.444 17.143,16.444 17.143,16.444 C17.143,16.444 17.143,11.511 17.143,11.511 ZM63.673,20.555 C63.673,20.555 49.796,20.555 49.796,20.555 C49.796,20.555 49.796,16.444 49.796,16.444 C49.796,16.444 63.673,16.444 63.673,16.444 C63.673,16.444 63.673,20.555 63.673,20.555 Z" id="path-1" class="cls-2" fill-rule="evenodd"/>
</svg>
