<svg xmlns="http://www.w3.org/2000/svg" xmlns:xlink="http://www.w3.org/1999/xlink" preserveAspectRatio="xMidYMid" width="639" height="3444" viewBox="0 0 639 3444">
  <defs>
    <style>

      .cls-3 {
        stroke: #ffd800;
        stroke-width: 1px;
        fill: none;
      }
    </style>
  </defs>
  <g id="scooter">
    <path d="M228.956,123.388 C228.956,123.388 220.160,119.367 214.640,111.540 C210.810,106.108 207.362,98.024 203.675,91.793 C195.069,77.249 188.913,66.016 173.215,64.451 C156.544,62.789 137.975,76.758 126.917,86.021 C119.637,92.119 111.414,97.952 104.488,101.678 C93.813,107.421 85.797,109.413 85.797,109.413 " id="path-1" class="cls-3" fill-rule="evenodd"/>
    <path d="M387.040,30.729 C387.040,30.729 396.410,37.243 399.833,55.944 C401.204,63.435 404.732,85.438 401.051,100.299 C398.244,111.632 388.349,131.447 377.902,137.971 C369.331,143.323 359.627,136.452 359.627,136.452 " id="path-2" class="cls-3" fill-rule="evenodd"/>
    <path d="M228.651,123.084 C228.651,123.084 306.932,128.857 306.932,128.857 " id="path-3" class="cls-3" fill-rule="evenodd"/>
    <path d="M86.102,109.413 C86.102,109.413 32.493,104.856 32.493,104.856 C32.493,104.856 73.918,12.804 73.918,12.804 C73.918,12.804 71.177,4.298 71.177,4.298 C71.177,4.298 134.532,5.209 134.532,5.209 " id="path-4" class="cls-3" fill-rule="evenodd"/>
    <path d="M72.090,4.905 C72.090,4.905 57.024,-1.114 41.132,2.904 C27.190,6.429 12.543,19.382 7.821,31.640 C2.340,45.870 -1.642,67.522 4.808,84.797 C7.317,91.517 10.949,97.859 14.931,102.813 C21.818,111.381 30.361,116.097 30.361,116.097 " id="path-5" class="cls-3" fill-rule="evenodd"/>
    <path d="M74.223,12.197 C74.223,12.197 64.237,10.894 53.665,15.962 C44.945,20.141 36.435,29.018 32.189,38.628 C28.158,47.748 24.534,59.055 25.022,69.684 C25.853,87.799 32.798,104.856 32.798,104.856 " id="path-6" class="cls-3" fill-rule="evenodd"/>
    <path d="M63.562,36.501 C63.562,36.501 59.901,36.308 55.324,39.028 C51.329,41.402 47.099,46.358 45.270,50.903 C43.558,55.156 42.002,60.803 42.230,65.383 C42.592,72.632 45.591,76.299 45.591,76.299 " id="path-7" class="cls-3" fill-rule="evenodd"/>
    <path d="M64.780,2.779 C64.780,2.779 53.667,4.797 42.300,10.872 C32.924,15.884 23.168,23.754 18.787,34.678 C14.375,45.679 12.873,60.579 14.707,73.032 C17.191,89.896 24.269,103.337 24.269,103.337 " id="path-8" class="cls-3" fill-rule="evenodd"/>
    <path d="M49.855,1.564 C49.855,1.564 17.490,13.560 9.953,37.412 C6.316,48.924 4.248,62.772 6.484,74.672 C9.331,89.823 16.655,102.426 16.655,102.426 " id="path-9" class="cls-3" fill-rule="evenodd"/>
    <path d="M24.269,103.641 C24.269,103.641 16.350,102.426 16.350,102.426 " id="path-10" class="cls-3" fill-rule="evenodd"/>
    <path d="M30.057,116.097 C30.057,116.097 103.464,125.211 103.464,125.211 " id="path-11" class="cls-3" fill-rule="evenodd"/>
    <path d="M20.005,108.198 C20.005,108.198 101.331,115.186 101.331,115.186 " id="path-12" class="cls-3" fill-rule="evenodd"/>
    <path d="M100.418,115.489 C100.577,114.469 117.148,114.372 130.331,102.679 C136.167,97.502 149.478,88.979 156.307,86.941 C165.108,84.315 173.520,85.109 173.520,85.109 " id="path-13" class="cls-3" fill-rule="evenodd"/>
    <path d="M179.917,94.223 C179.917,94.223 165.154,96.014 157.681,102.730 C149.676,109.924 140.422,116.330 130.281,120.417 C115.252,126.473 103.159,125.515 103.159,125.515 " id="path-14" class="cls-3" fill-rule="evenodd"/>
    <path d="M134.532,5.209 C134.532,5.209 143.338,7.027 151.589,14.019 C158.087,19.526 162.743,26.100 167.124,31.944 C172.025,38.482 182.353,45.615 182.353,45.615 " id="path-15" class="cls-3" fill-rule="evenodd"/>
    <path d="M182.962,45.919 C182.962,45.919 171.308,56.886 171.083,68.704 C170.986,73.834 170.768,79.497 172.911,83.894 C175.854,89.933 180.830,93.919 180.830,93.919 " id="path-16" class="cls-3" fill-rule="evenodd"/>
    <path d="M180.526,45.007 C180.526,45.007 186.048,46.615 191.186,46.526 C193.871,46.480 201.016,46.107 205.022,44.008 C212.988,39.836 221.018,34.343 230.157,28.869 C240.208,22.848 250.637,15.635 258.210,12.121 C265.859,8.571 270.685,8.247 270.685,8.247 " id="path-17" class="cls-3" fill-rule="evenodd"/>
    <path d="M333.127,8.855 C333.127,8.855 301.982,8.694 283.981,8.784 C275.760,8.825 270.685,8.551 270.685,8.551 " id="path-18" class="cls-3" fill-rule="evenodd"/>
    <path d="M235.352,132.502 C235.352,132.502 229.718,132.915 222.184,125.169 C213.768,116.516 202.906,98.958 193.348,91.701 C183.678,84.360 173.520,85.413 173.520,85.413 " id="path-19" class="cls-3" fill-rule="evenodd"/>
    <path d="M179.612,93.919 C179.612,93.919 190.083,91.471 197.909,97.393 C202.130,100.587 206.176,105.358 210.626,111.855 C215.185,118.511 220.152,126.903 224.888,130.885 C235.541,139.844 242.054,141.009 242.054,141.009 " id="path-20" class="cls-3" fill-rule="evenodd"/>
    <path d="M234.743,132.198 C234.743,132.198 347.138,142.832 347.138,142.832 " id="path-21" class="cls-3" fill-rule="evenodd"/>
    <path d="M351.098,150.123 C351.098,150.123 342.831,151.980 330.495,151.155 C298.829,149.038 242.054,141.313 242.054,141.313 " id="path-22" class="cls-3" fill-rule="evenodd"/>
    <path d="M306.627,129.160 C306.627,129.160 303.798,124.815 300.797,116.933 C299.114,112.513 298.996,107.171 297.973,101.266 C296.224,91.171 296.844,81.858 297.506,70.254 C298.629,50.569 310.562,29.385 319.725,17.969 C327.386,8.424 348.892,1.350 362.371,3.555 C382.285,6.812 394.046,23.134 394.046,23.134 C394.046,23.134 393.132,23.134 393.132,23.134 C393.132,23.134 380.086,11.345 369.983,12.804 C365.579,13.440 356.509,19.088 351.061,26.694 C347.105,32.218 339.750,45.697 336.816,59.271 C335.037,67.507 331.783,87.466 335.387,106.366 C337.033,114.999 339.437,123.429 342.147,130.532 C346.470,141.866 351.098,149.819 351.098,149.819 " id="path-23" class="cls-3" fill-rule="evenodd"/>
    <path d="M393.741,23.134 C393.741,23.134 393.906,26.241 392.218,27.994 C390.269,30.019 386.126,30.729 386.126,30.729 " id="path-24" class="cls-3" fill-rule="evenodd"/>
    <path d="M387.345,31.640 C387.345,31.640 383.809,29.651 379.120,29.210 C375.679,28.886 371.423,29.964 368.460,31.640 C359.798,36.541 355.058,48.653 355.058,48.653 C355.058,48.653 351.665,57.086 349.880,66.881 C348.907,72.217 346.555,85.115 348.599,97.605 C351.056,112.614 357.190,123.084 357.190,123.084 " id="path-25" class="cls-3" fill-rule="evenodd"/>
    <path d="M356.885,122.781 C356.885,122.781 358.825,127.500 359.322,132.806 C359.605,135.826 359.202,139.150 358.713,141.616 C357.476,147.855 350.184,150.123 350.184,150.123 " id="path-26" class="cls-3" fill-rule="evenodd"/>
    <path d="M391.304,27.994 C391.509,27.123 397.293,33.676 400.442,46.830 C402.236,54.325 403.084,63.697 403.321,72.362 C403.478,78.063 403.546,93.252 401.051,103.641 C399.929,108.316 398.278,117.289 394.046,124.907 C392.041,128.516 390.227,132.001 387.649,135.237 C383.991,139.829 379.344,143.914 375.161,147.085 C365.974,154.047 350.793,149.819 350.793,149.819 " id="path-27" class="cls-3" fill-rule="evenodd"/>
    <path d="M387.040,34.678 C386.960,34.310 399.992,45.847 402.879,65.970 C404.162,74.915 402.294,103.163 396.787,115.186 C393.882,121.527 386.227,129.689 380.034,129.768 C376.104,129.818 366.344,125.800 361.759,116.705 C359.229,111.685 355.052,98.150 355.667,85.109 C356.027,77.466 357.627,61.777 362.672,51.387 C365.535,45.492 370.503,36.738 375.770,33.767 C380.754,30.955 387.040,34.678 387.040,34.678 " id="path-28" class="cls-3" fill-rule="evenodd"/>
    <path d="M362.063,3.690 C362.063,3.690 348.650,10.320 340.742,19.488 C336.720,24.151 329.222,34.688 325.512,46.223 C323.169,53.506 319.720,68.419 319.420,82.375 C319.250,90.311 319.113,101.271 320.943,110.629 C323.118,121.746 327.340,130.679 327.340,130.679 " id="path-29" class="cls-3" fill-rule="evenodd"/>
    <path d="M345.311,4.905 C345.311,4.905 327.353,18.104 319.725,33.463 C316.143,40.673 311.123,55.550 309.978,70.527 C309.296,79.449 308.112,93.508 309.673,103.945 C311.890,118.757 316.679,129.464 316.679,129.464 " id="path-30" class="cls-3" fill-rule="evenodd"/>
    <path d="M316.374,129.160 C316.374,129.160 327.035,130.679 327.035,130.679 " id="path-31" class="cls-3" fill-rule="evenodd"/>
    <path d="M185.399,46.223 C185.399,46.223 176.312,54.285 174.129,63.539 C172.051,72.350 175.652,83.590 175.652,83.590 " id="path-32" class="cls-3" fill-rule="evenodd"/>
    <path d="M199.106,45.919 C199.106,45.919 203.759,53.606 200.934,58.678 C195.070,69.205 180.221,84.198 180.221,84.198 " id="path-33" class="cls-3" fill-rule="evenodd"/>
    <path d="M179.917,84.198 C179.917,84.198 175.348,83.894 175.348,83.894 " id="path-34" class="cls-3" fill-rule="evenodd"/>
    <path d="M181.135,45.311 C181.135,45.311 171.595,50.131 168.951,59.286 C166.118,69.096 169.256,83.590 169.256,83.590 " id="path-35" class="cls-3" fill-rule="evenodd"/>
    <path d="M180.221,44.400 C180.221,44.400 165.594,41.737 158.290,45.007 C154.415,46.743 147.562,52.841 147.325,60.197 C147.246,62.652 146.424,68.142 149.762,71.742 C156.076,78.552 169.560,83.286 169.560,83.286 " id="path-36" class="cls-3" fill-rule="evenodd"/>
    <path d="M91.889,12.500 C91.889,12.500 84.310,11.964 82.447,13.108 C80.363,14.387 45.286,90.274 45.286,90.274 C45.286,90.274 45.896,94.527 45.896,94.527 C45.896,94.527 82.751,98.477 82.751,98.477 C82.751,98.477 94.947,98.061 104.073,93.312 C112.427,88.965 118.389,79.641 118.389,79.641 C118.389,79.641 137.578,37.412 137.578,37.412 C137.578,37.412 139.532,27.272 135.751,21.614 C131.918,15.880 121.739,13.108 121.739,13.108 C121.739,13.108 91.889,12.500 91.889,12.500 Z" id="path-37" class="cls-3" fill-rule="evenodd"/>
    <path d="M46.505,89.970 C46.505,89.970 84.274,92.704 84.274,92.704 C84.274,92.704 93.629,91.798 101.027,88.147 C108.089,84.662 113.211,78.426 113.211,78.426 C113.211,78.426 132.095,36.197 132.095,36.197 C132.095,36.197 132.141,29.435 129.354,24.956 C126.660,20.627 121.130,18.576 121.130,18.576 C121.130,18.576 80.619,16.450 80.619,16.450 " id="path-38" class="cls-3" fill-rule="evenodd"/>
    <path d="M115.952,18.273 C115.952,18.273 129.963,25.564 129.963,25.564 " id="path-39" class="cls-3" fill-rule="evenodd"/>
    <path d="M132.095,33.159 C132.095,33.159 99.808,17.665 99.808,17.665 " id="path-40" class="cls-3" fill-rule="evenodd"/>
    <path d="M81.533,16.450 C81.533,16.450 132.095,36.805 132.095,36.805 " id="path-41" class="cls-3" fill-rule="evenodd"/>
    <path d="M78.487,21.311 C78.487,21.311 130.572,40.450 130.572,40.450 " id="path-42" class="cls-3" fill-rule="evenodd"/>
    <path d="M75.441,27.083 C75.441,27.083 129.049,43.185 129.049,43.185 " id="path-43" class="cls-3" fill-rule="evenodd"/>
    <path d="M72.700,32.855 C72.700,32.855 127.527,46.830 127.527,46.830 " id="path-44" class="cls-3" fill-rule="evenodd"/>
    <path d="M70.263,37.412 C70.263,37.412 126.308,49.261 126.308,49.261 " id="path-45" class="cls-3" fill-rule="evenodd"/>
    <path d="M125.394,52.299 C125.394,52.299 67.522,44.096 67.522,44.096 " id="path-46" class="cls-3" fill-rule="evenodd"/>
    <path d="M124.176,54.729 C124.176,54.729 64.780,48.957 64.780,48.957 " id="path-47" class="cls-3" fill-rule="evenodd"/>
    <path d="M122.653,58.071 C122.653,58.071 62.039,54.729 62.039,54.729 " id="path-48" class="cls-3" fill-rule="evenodd"/>
    <path d="M120.825,61.716 C120.825,61.716 59.298,60.805 59.298,60.805 " id="path-49" class="cls-3" fill-rule="evenodd"/>
    <path d="M119.912,64.451 C119.912,64.451 56.556,66.577 56.556,66.577 " id="path-50" class="cls-3" fill-rule="evenodd"/>
    <path d="M118.084,68.096 C118.084,68.096 54.424,71.438 54.424,71.438 " id="path-51" class="cls-3" fill-rule="evenodd"/>
    <path d="M116.866,70.527 C116.866,70.527 51.074,78.426 51.074,78.426 " id="path-52" class="cls-3" fill-rule="evenodd"/>
    <path d="M115.647,73.868 C115.647,73.868 48.637,83.894 48.637,83.894 " id="path-53" class="cls-3" fill-rule="evenodd"/>
    <path d="M114.429,76.603 C114.429,76.603 45.591,90.274 45.591,90.274 " id="path-54" class="cls-3" fill-rule="evenodd"/>
    <path d="M110.165,82.071 C110.165,82.071 68.435,91.793 68.435,91.793 " id="path-55" class="cls-3" fill-rule="evenodd"/>
    <path d="M105.291,86.021 C105.291,86.021 81.838,92.704 81.838,92.704 " id="path-56" class="cls-3" fill-rule="evenodd"/>
    <path d="M319.420,18.880 C319.420,18.880 274.036,18.880 274.036,18.880 C274.036,18.880 262.649,20.151 253.628,25.564 C243.251,31.790 235.048,42.273 235.048,42.273 C235.048,42.273 218.295,86.324 218.295,86.324 C218.295,86.324 217.466,93.923 220.427,98.780 C224.216,104.994 234.439,110.021 234.439,110.021 C234.439,110.021 239.694,111.884 246.897,113.281 C255.932,115.033 267.335,116.401 267.335,116.401 C267.335,116.401 293.225,118.527 293.225,118.527 C293.225,118.527 300.231,114.274 300.231,114.274 " id="path-57" class="cls-3" fill-rule="evenodd"/>
    <path d="M316.983,21.918 C316.983,21.918 272.208,21.918 272.208,21.918 C272.208,21.918 263.150,23.062 255.151,27.994 C246.429,33.372 239.312,41.666 239.312,41.666 C239.312,41.666 222.864,85.413 222.864,85.413 C222.864,85.413 221.945,93.085 226.542,98.087 C231.933,103.953 242.967,107.287 242.967,107.287 C242.967,107.287 251.018,109.330 260.831,110.303 C274.792,111.686 292.007,112.148 292.007,112.148 C292.007,112.148 299.013,107.591 299.013,107.591 " id="path-58" class="cls-3" fill-rule="evenodd"/>
    <path d="M245.709,34.982 C245.709,34.982 292.616,21.614 292.616,21.614 " id="path-59" class="cls-3" fill-rule="evenodd"/>
    <path d="M306.018,21.918 C306.018,21.918 241.140,39.843 241.140,39.843 " id="path-60" class="cls-3" fill-rule="evenodd"/>
    <path d="M238.094,44.704 C238.094,44.704 311.501,30.121 311.501,30.121 " id="path-61" class="cls-3" fill-rule="evenodd"/>
    <path d="M309.064,34.374 C309.064,34.374 236.571,48.045 236.571,48.045 " id="path-62" class="cls-3" fill-rule="evenodd"/>
    <path d="M305.409,42.577 C305.409,42.577 235.048,52.299 235.048,52.299 " id="path-63" class="cls-3" fill-rule="evenodd"/>
    <path d="M302.668,49.261 C302.668,49.261 234.134,55.033 234.134,55.033 " id="path-64" class="cls-3" fill-rule="evenodd"/>
    <path d="M300.535,55.640 C300.535,55.640 232.916,58.375 232.916,58.375 " id="path-65" class="cls-3" fill-rule="evenodd"/>
    <path d="M299.013,61.109 C299.013,61.109 231.697,61.109 231.697,61.109 " id="path-66" class="cls-3" fill-rule="evenodd"/>
    <path d="M298.099,67.792 C298.099,67.792 230.174,65.058 230.174,65.058 " id="path-67" class="cls-3" fill-rule="evenodd"/>
    <path d="M297.490,74.476 C297.490,74.476 229.261,68.096 229.261,68.096 " id="path-68" class="cls-3" fill-rule="evenodd"/>
    <path d="M296.880,82.983 C296.880,82.983 228.347,70.830 228.347,70.830 " id="path-69" class="cls-3" fill-rule="evenodd"/>
    <path d="M296.880,89.059 C296.880,89.059 227.128,73.565 227.128,73.565 " id="path-70" class="cls-3" fill-rule="evenodd"/>
    <path d="M297.794,98.780 C297.794,98.780 225.606,78.122 225.606,78.122 " id="path-71" class="cls-3" fill-rule="evenodd"/>
    <path d="M298.708,106.072 C298.708,106.072 224.387,81.160 224.387,81.160 " id="path-72" class="cls-3" fill-rule="evenodd"/>
    <path d="M289.265,112.148 C289.265,112.148 223.169,84.502 223.169,84.502 " id="path-73" class="cls-3" fill-rule="evenodd"/>
    <path d="M272.513,111.540 C272.513,111.540 222.560,87.843 222.560,87.843 " id="path-74" class="cls-3" fill-rule="evenodd"/>
    <path d="M373.942,40.147 C373.942,40.147 378.207,66.577 378.207,66.577 C378.207,66.577 378.110,71.913 376.988,72.957 C375.826,74.039 373.638,70.830 373.638,70.830 C373.638,70.830 364.195,55.337 364.195,55.337 C364.195,55.337 360.487,60.823 359.322,67.792 C358.054,75.379 359.322,84.502 359.322,84.502 C359.322,84.502 372.420,83.286 372.420,83.286 C372.420,83.286 374.708,83.717 374.856,85.413 C375.013,87.208 373.029,90.274 373.029,90.274 C373.029,90.274 361.150,106.679 361.150,106.679 C361.150,106.679 360.767,108.111 361.150,110.021 C361.403,111.284 363.338,115.252 365.536,118.324 C366.565,119.763 370.438,124.753 372.420,124.300 C374.761,123.764 377.902,96.654 377.902,96.654 " id="path-75" class="cls-3" fill-rule="evenodd"/>
    <path d="M378.207,96.654 C378.207,96.654 378.996,93.919 380.034,93.919 C380.971,93.919 382.471,96.958 382.471,96.958 C382.471,96.958 383.491,101.953 384.299,107.591 C385.298,114.569 386.126,122.477 386.126,122.477 C386.126,122.477 387.777,122.444 389.172,121.565 C389.996,121.046 393.319,116.109 395.569,111.540 C397.402,107.816 397.701,103.945 397.701,103.945 C397.701,103.945 385.822,87.843 385.822,87.843 C385.822,87.843 385.013,85.978 385.822,84.805 C386.687,83.550 389.172,82.983 389.172,82.983 C389.172,82.983 400.747,82.983 400.747,82.983 C400.747,82.983 401.723,74.341 401.051,67.489 C400.353,60.371 398.005,55.033 398.005,55.033 C398.005,55.033 396.202,59.366 394.046,62.628 C391.512,66.459 386.431,72.046 386.431,72.046 C386.431,72.046 384.642,73.018 383.994,71.438 C383.275,69.685 383.689,65.362 383.689,65.362 C383.689,65.362 388.868,39.235 388.868,39.235 C388.868,39.235 384.790,35.915 381.253,36.197 C377.209,36.520 373.942,40.450 373.942,40.450 " id="path-76" class="cls-3" fill-rule="evenodd"/>
    <path d="M377.598,78.729 C377.598,78.729 379.730,76.603 379.730,76.603 C379.730,76.603 380.034,66.577 380.034,66.577 C380.034,66.577 381.557,66.577 381.557,66.577 C381.557,66.577 381.862,76.299 381.862,76.299 C381.862,76.299 383.689,78.426 383.689,78.426 C383.689,78.426 387.345,75.691 387.345,75.691 C387.345,75.691 388.868,77.818 388.868,77.818 C388.868,77.818 384.299,80.856 384.299,80.856 C384.299,80.856 383.385,86.628 383.385,86.628 C383.385,86.628 386.126,92.704 386.126,92.704 C386.126,92.704 384.299,94.223 384.299,94.223 C384.299,94.223 381.557,87.540 381.557,87.540 C381.557,87.540 380.034,87.540 380.034,87.540 C380.034,87.540 376.379,93.616 376.379,93.616 C376.379,93.616 374.856,92.704 374.856,92.704 C374.856,92.704 378.511,86.021 378.511,86.021 C378.511,86.021 376.379,80.856 376.379,80.856 C376.379,80.856 373.029,78.122 373.029,78.122 C373.029,78.122 374.552,75.995 374.552,75.995 C374.552,75.995 377.598,78.729 377.598,78.729 Z" id="path-77" class="cls-3" fill-rule="evenodd"/>
  </g>
</svg>
